<svg xmlns="http://www.w3.org/2000/svg" viewBox="0 0 1440 320" preserveAspectRatio="xMidYMid slice">
  <defs>
    <linearGradient id="bg" x1="0%" y1="0%" x2="100%" y2="100%">
      <stop offset="0%" stop-color="#0f1419"/>
      <stop offset="50%" stop-color="#151b24"/>
      <stop offset="100%" stop-color="#1a2332"/>
    </linearGradient>
    <linearGradient id="glow" x1="0%" y1="0%" x2="100%" y2="100%">
      <stop offset="0%" stop-color="#1e293b" stop-opacity="0.4"/>
      <stop offset="100%" stop-color="#0f172a" stop-opacity="0.2"/>
    </linearGradient>
    <linearGradient id="line" x1="0%" y1="0%" x2="100%" y2="0%">
      <stop offset="0%" stop-color="#94a3b8" stop-opacity="0"/>
      <stop offset="40%" stop-color="#cbd5e1" stop-opacity="0.35"/>
      <stop offset="100%" stop-color="#e2e8f0" stop-opacity="0.15"/>
    </linearGradient>
    <pattern id="grid" width="56" height="56" patternUnits="userSpaceOnUse">
      <path d="M56 0H0V56" fill="none" stroke="#ffffff" stroke-opacity="0.03" stroke-width="1"/>
    </pattern>
  </defs>
  <rect width="1440" height="320" fill="url(#bg)"/>
  <rect width="1440" height="320" fill="url(#glow)"/>
  <rect width="1440" height="320" fill="url(#grid)"/>
  <path d="M0 260 C200 220, 380 280, 580 240 S980 200, 1200 235 S1380 265, 1440 245 L1440 320 L0 320 Z" fill="#0a0f14" fill-opacity="0.45"/>
  <path d="M80 255 L200 195 L320 215 L440 165 L560 185 L680 130 L800 155 L920 105 L1040 130 L1160 85 L1280 110 L1360 95" fill="none" stroke="url(#line)" stroke-width="2" stroke-linecap="round" stroke-linejoin="round" opacity="0.55"/>
  <path d="M80 255 L200 195 L320 215 L440 165 L560 185 L680 130 L800 155 L920 105 L1040 130 L1160 85 L1280 110 L1360 95 L1360 320 L80 320 Z" fill="#ffffff" fill-opacity="0.02"/>
  <circle cx="1220" cy="78" r="48" fill="#ffffff" fill-opacity="0.02"/>
  <circle cx="1220" cy="78" r="30" fill="none" stroke="#ffffff" stroke-opacity="0.06" stroke-width="1"/>
  <rect x="1080" y="52" width="92" height="58" rx="10" fill="#ffffff" fill-opacity="0.03" stroke="#ffffff" stroke-opacity="0.06"/>
  <rect x="1098" y="72" width="9" height="26" rx="2" fill="#94a3b8" fill-opacity="0.35"/>
  <rect x="1116" y="62" width="9" height="36" rx="2" fill="#cbd5e1" fill-opacity="0.4"/>
  <rect x="1134" y="50" width="9" height="48" rx="2" fill="#e2e8f0" fill-opacity="0.45"/>
  <rect x="1152" y="58" width="9" height="40" rx="2" fill="#1e5c4b" fill-opacity="0.55"/>
</svg>
