<svg xmlns="http://www.w3.org/2000/svg" viewBox="0 0 1440 320" preserveAspectRatio="xMidYMid slice">
  <defs>
    <linearGradient id="bg" x1="0%" y1="0%" x2="100%" y2="100%">
      <stop offset="0%" stop-color="#0c1f1c"/>
      <stop offset="45%" stop-color="#0f2e2a"/>
      <stop offset="100%" stop-color="#0a1a24"/>
    </linearGradient>
    <linearGradient id="glow" x1="70%" y1="0%" x2="100%" y2="80%">
      <stop offset="0%" stop-color="#1e5c4b" stop-opacity="0.55"/>
      <stop offset="100%" stop-color="#0369a1" stop-opacity="0.15"/>
    </linearGradient>
    <linearGradient id="line" x1="0%" y1="0%" x2="100%" y2="0%">
      <stop offset="0%" stop-color="#6ee7b7" stop-opacity="0"/>
      <stop offset="35%" stop-color="#6ee7b7" stop-opacity="0.65"/>
      <stop offset="100%" stop-color="#38bdf8" stop-opacity="0.35"/>
    </linearGradient>
    <pattern id="grid" width="48" height="48" patternUnits="userSpaceOnUse">
      <path d="M48 0H0V48" fill="none" stroke="#ffffff" stroke-opacity="0.04" stroke-width="1"/>
    </pattern>
  </defs>
  <rect width="1440" height="320" fill="url(#bg)"/>
  <rect width="1440" height="320" fill="url(#glow)"/>
  <rect width="1440" height="320" fill="url(#grid)"/>
  <path d="M0 248 C180 210, 320 270, 520 230 S920 180, 1120 220 S1360 260, 1440 235 L1440 320 L0 320 Z" fill="#0a1612" fill-opacity="0.35"/>
  <path d="M120 250 L220 190 L320 210 L420 150 L520 170 L620 110 L720 140 L820 95 L920 125 L1020 80 L1120 105 L1220 70 L1320 95" fill="none" stroke="url(#line)" stroke-width="2.5" stroke-linecap="round" stroke-linejoin="round" opacity="0.75"/>
  <path d="M120 250 L220 190 L320 210 L420 150 L520 170 L620 110 L720 140 L820 95 L920 125 L1020 80 L1120 105 L1220 70 L1320 95 L1320 320 L120 320 Z" fill="#1e5c4b" fill-opacity="0.08"/>
  <circle cx="1180" cy="88" r="52" fill="#0ea5e9" fill-opacity="0.07"/>
  <circle cx="1180" cy="88" r="34" fill="none" stroke="#5eead4" stroke-opacity="0.18" stroke-width="1.2"/>
  <rect x="1040" y="58" width="88" height="56" rx="10" fill="#ffffff" fill-opacity="0.04" stroke="#86efac" stroke-opacity="0.12"/>
  <rect x="1056" y="78" width="10" height="28" rx="2" fill="#34d399" fill-opacity="0.55"/>
  <rect x="1074" y="66" width="10" height="40" rx="2" fill="#6ee7b7" fill-opacity="0.7"/>
  <rect x="1092" y="54" width="10" height="52" rx="2" fill="#a7f3d0" fill-opacity="0.85"/>
  <path d="M180 72 L210 52 L240 72 L240 102 L180 102 Z" fill="none" stroke="#86efac" stroke-opacity="0.22" stroke-width="1.4" stroke-linejoin="round"/>
  <path d="M194 102 V84 H226 V102" fill="#1e5c4b" fill-opacity="0.25" stroke="#6ee7b7" stroke-opacity="0.2" stroke-width="1"/>
</svg>
