<svg xmlns="http://www.w3.org/2000/svg" viewBox="0 0 292 640" fill="none" aria-hidden="true">
  <defs>
    <linearGradient id="tealLine" x1="0%" y1="100%" x2="100%" y2="0%">
      <stop offset="0%" stop-color="#1e5c4b"/>
      <stop offset="100%" stop-color="#2d8a72"/>
    </linearGradient>
  </defs>
  <!-- Įrea superior intencionalmente vazia (limpa para logo/marca) -->
  <!-- Grid dashboard — surge suavemente no meio -->
  <g stroke="rgba(148,196,184,0.22)" stroke-width="0.6" opacity="0.5">
    <path d="M32 280h228M32 340h228M32 400h160"/>
    <path d="M32 280v280M92 280v220M152 280v180M212 280v240M260 280v280"/>
  </g>
  <!-- Grįfico de barras (line-art) -->
  <g transform="translate(36,368)" stroke="rgba(110,190,165,0.38)" stroke-width="0.85" fill="none" stroke-linecap="round">
    <path d="M0 56V28M0 56h18M18 56V14M18 56h18M36 56V4M36 56h18M54 56V32M54 56h18"/>
    <path d="M-8 64h88" stroke="rgba(255,255,255,0.12)" stroke-width="0.7"/>
  </g>
  <!-- Calendįrio -->
  <g transform="translate(188,312)" stroke="rgba(148,196,184,0.3)" stroke-width="0.75" fill="none">
    <rect x="0" y="0" width="64" height="54" rx="5"/>
    <path d="M0 14h64M16 0v14M48 0v14"/>
    <circle cx="16" cy="28" r="2" fill="rgba(110,190,165,0.2)" stroke="none"/>
    <circle cx="32" cy="28" r="2" fill="rgba(110,190,165,0.15)" stroke="none"/>
    <circle cx="48" cy="28" r="2" fill="rgba(110,190,165,0.15)" stroke="none"/>
    <circle cx="32" cy="40" r="2" fill="rgba(30,92,75,0.25)" stroke="none"/>
  </g>
  <!-- Cķrculos financeiros -->
  <g transform="translate(48,420)" stroke="rgba(110,190,165,0.28)" stroke-width="0.75" fill="none">
    <circle cx="14" cy="14" r="12"/>
    <circle cx="38" cy="20" r="9"/>
    <circle cx="22" cy="36" r="7"/>
  </g>
  <!-- Moedas (line-art, sem dourado) -->
  <g transform="translate(210,430)" stroke="rgba(110,190,165,0.32)" stroke-width="0.75" fill="none">
    <ellipse cx="16" cy="20" rx="14" ry="5"/>
    <ellipse cx="16" cy="14" rx="14" ry="5"/>
    <path d="M2 14v12c0 2.5 6.3 4.5 14 4.5s14-2 14-4.5V14"/>
  </g>
  <!-- Linha de evoluēćo financeira -->
  <polyline points="28,560 76,520 118,532 158,488 198,498 238,462 264,472"
    stroke="url(#tealLine)" stroke-width="1.4" fill="none" stroke-linecap="round" stroke-linejoin="round" opacity="0.45"/>
  <circle cx="264" cy="472" r="2.5" fill="rgba(110,190,165,0.35)" stroke="none"/>
  <!-- Casa — centro inferior -->
  <g transform="translate(98,468)" stroke="rgba(148,196,184,0.35)" stroke-width="0.9" fill="none" stroke-linejoin="round">
    <path d="M0 68 L54 -34 L108 68 Z"/>
    <rect x="14" y="68" width="80" height="56" rx="2.5"/>
    <rect x="40" y="88" width="26" height="36" rx="1.5"/>
    <rect x="22" y="80" width="14" height="12" rx="1"/>
  </g>
  <!-- Formas abstratas dashboard -->
  <rect x="40" y="548" width="48" height="32" rx="4" stroke="rgba(110,190,165,0.2)" stroke-width="0.7" fill="none"/>
  <path d="M48 568h32M48 558h20" stroke="rgba(255,255,255,0.1)" stroke-width="0.6"/>
  <circle cx="238" cy="580" r="48" stroke="rgba(30,92,75,0.18)" stroke-width="0.7" fill="none"/>
  <circle cx="72" cy="500" r="28" stroke="rgba(255,255,255,0.07)" stroke-width="0.6" fill="none"/>
</svg>
